# xmcd
#
# Track frame offsets:
#	150
#	13320
#	31643
#	49043
#	66600
#	88073
#	108137
#	123341
#	142308
#	163158
#	180090
#	198744
#	213948
#	232290
#	244134
#	260368
#	278336
#	294014
#	309063
#
# Disc length: 4369 seconds
#
# Revision: 0
# Processed by: cddbd v1.4PL0 Copyright (c) Steve Scherf et al.
# Submitted via: EasyCDDAExtractor 4.6.9.1
#
DISCID=0c110f13
DTITLE=Shania Twain - Up
DYEAR=1900
DGENRE=Country
TTITLE0=Up
TTITLE1=I'm Gonna Getcha Good
TTITLE2=She's Not Just A Pretty Face
TTITLE3=Luanita
TTITLE4=Forever And For Always
TTITLE5=Ain't No Particular Way
TTITLE6=It Only Hurts When I'm Breathing
TTITLE7=Nah
TTITLE8=(wanna get to know you) That's Good
TTITLE9=C'est La Ve
TTITLE10=I'm Jealous
TTITLE11=Ka-Ching
TTITLE12=Thank You Baby (for making someday come so soon)
TTITLE13=Waiter Bring Me Water
TTITLE14=What a Way To Wanna Be
TTITLE15=I Ain't Goin' Down
TTITLE16=I'm Not In The Mood (to say no)
TTITLE17=In My Car (i'll be the driver)
TTITLE18=When You Kiss Me
EXTD=
EXTT0=
EXTT1=
EXTT2=
EXTT3=
EXTT4=
EXTT5=
EXTT6=
EXTT7=
EXTT8=
EXTT9=
EXTT10=
EXTT11=
EXTT12=
EXTT13=
EXTT14=
EXTT15=
EXTT16=
EXTT17=
EXTT18=
PLAYORDER=
